<?xml version="1.0" encoding="UTF-8" standalone="no"?>
<svg
   xmlns:dc="http://purl.org/dc/elements/1.1/"
   xmlns:cc="http://creativecommons.org/ns#"
   xmlns:rdf="http://www.w3.org/1999/02/22-rdf-syntax-ns#"
   xmlns:svg="http://www.w3.org/2000/svg"
   xmlns="http://www.w3.org/2000/svg"
   xmlns:sodipodi="http://sodipodi.sourceforge.net/DTD/sodipodi-0.dtd"
   xmlns:inkscape="http://www.inkscape.org/namespaces/inkscape"
   width="400"
   height="120"
   viewBox="0 0 105.8333 31.749994"
   version="1.1"
   id="svg8"
   inkscape:version="1.0.1 (3bc2e813f5, 2020-09-07)"
   sodipodi:docname="bellisLogo.svg">
  <defs
     id="defs2">
    <rect
       x="35.012308"
       y="4.2763124"
       width="184.1487"
       height="78.042702"
       id="rect850" />
    <pattern
       id="EMFhbasepattern"
       patternUnits="userSpaceOnUse"
       width="6"
       height="6"
       x="0"
       y="0" />
  </defs>
  <sodipodi:namedview
     id="base"
     pagecolor="#ffffff"
     bordercolor="#666666"
     borderopacity="1.0"
     inkscape:pageopacity="0.0"
     inkscape:pageshadow="2"
     inkscape:zoom="1.4"
     inkscape:cx="61.043509"
     inkscape:cy="-28.825636"
     inkscape:document-units="mm"
     inkscape:current-layer="layer1"
     inkscape:document-rotation="0"
     showgrid="false"
     units="px"
     inkscape:window-width="1920"
     inkscape:window-height="1017"
     inkscape:window-x="-8"
     inkscape:window-y="-8"
     inkscape:window-maximized="1" />
  <metadata
     id="metadata5">
    <rdf:RDF>
      <cc:Work
         rdf:about="">
        <dc:format>image/svg+xml</dc:format>
        <dc:type
           rdf:resource="http://purl.org/dc/dcmitype/StillImage" />
        <dc:title></dc:title>
      </cc:Work>
    </rdf:RDF>
  </metadata>
  <g
     inkscape:label="Layer 1"
     inkscape:groupmode="layer"
     id="layer1">
    <g
       aria-label="lackellis"
       transform="translate(-1.112057,7.7239545)"
       id="text848"
       style="font-style:normal;font-weight:normal;font-size:16.9333px;line-height:1.25;font-family:sans-serif;letter-spacing:0px;word-spacing:0px;white-space:pre;shape-inside:url(#rect850);fill:#333333;fill-opacity:1;stroke:none">
      <path
         d="M 38.787845,6.0692396 V 17.82095 q 0,0.270933 0,0.491065 0,0.220133 0.03387,0.4064 0.03387,0.169333 0.135467,0.338666 0.118533,0.169333 0.338666,0.270932 0.186266,0.0508 0.626532,0.0508 v 0.372533 l -2.302929,-0.06773 -2.319862,0.06773 v -0.372533 q 0.440266,0 0.592665,-0.0508 0.169333,-0.0508 0.372533,-0.270932 0.169333,-0.220133 0.169333,-1.151465 v -0.1016 -8.8222488 q 0,-0.9482648 -0.609599,-0.9482648 l -0.558799,0.0508 -0.03387,-0.338666 1.879596,-0.8297317 z"
         style="font-style:normal;font-variant:normal;font-weight:normal;font-stretch:normal;font-family:Belfast-Bold;-inkscape-font-specification:Belfast-Bold;fill:#333333"
         id="path856" />
      <path
         d="m 45.442618,13.909357 q 0,-0.948264 -0.253999,-1.33773 -0.237067,-0.406399 -0.846665,-0.406399 -0.389466,0 -0.694266,0.253999 -0.287866,0.254 -0.287866,0.609599 0,0.270933 0.01693,0.338666 0.01693,0.06773 0.08467,0.270933 0.08467,0.203199 0.169333,0.389466 l -2.252129,0.728131 -0.08467,-0.524932 q 0,-0.575732 0.491065,-1.134531 0.507999,-0.558799 1.557864,-0.982131 1.049865,-0.423333 2.099729,-0.423333 1.066798,0 1.659464,0.541866 0.592665,0.507999 0.592665,1.523997 v 3.911592 q 0,0.914398 0.626532,0.914398 0.220133,0 0.609599,-0.220133 l 0.118533,0.3048 -3.149594,1.523997 -0.389466,-0.524933 q -0.08467,-0.186266 -0.169333,-0.660398 l -0.389466,0.321732 q -0.982131,0.694266 -1.981196,0.694266 -1.015998,0 -1.659463,-0.541866 -0.643465,-0.541865 -0.643465,-1.405464 0,-0.643465 0.372532,-1.032931 0.372533,-0.406399 0.897465,-0.643465 0.524932,-0.254 1.659463,-0.626533 l 1.507064,-0.457199 0.338666,-0.08467 z m 0,1.676397 q -1.286931,0.355599 -1.862663,0.897465 -0.575732,0.524932 -0.575732,1.405464 0,0.626532 0.287866,1.015998 0.1524,0.169333 0.338666,0.270933 0.2032,0.1016 0.440266,0.1016 0.677332,0 1.371597,-0.795866 z"
         style="font-style:normal;font-variant:normal;font-weight:normal;font-stretch:normal;font-family:Belfast-Bold;-inkscape-font-specification:Belfast-Bold;fill:#333333"
         id="path858" />
      <path
         d="m 56.974181,14.095624 h -0.372532 q -0.1524,-1.032932 -0.677332,-1.507064 -0.524932,-0.474132 -1.557864,-0.474132 -1.100664,0 -1.777996,0.914398 -0.677332,0.897465 -0.677332,2.370662 0,1.79493 0.846665,2.963327 0.846665,1.151465 2.167462,1.151465 0.592666,0 1.083731,-0.1524 0.507999,-0.169333 1.269998,-0.643465 l 0.135466,0.355599 q -1.015998,0.524932 -1.710263,0.745065 -0.287866,0.08467 -0.677332,0.135467 -0.389466,0.0508 -0.863598,0.0508 -2.065863,0 -3.369727,-1.168397 -1.286931,-1.168398 -1.286931,-2.980261 0,-1.879596 1.269998,-3.014127 1.269997,-1.151465 3.318926,-1.151465 0.2032,0 0.440266,0.01693 0.237066,0 0.812799,0.1016 0.592665,0.1016 1.625596,0.507999 z"
         style="font-style:normal;font-variant:normal;font-weight:normal;font-stretch:normal;font-family:Belfast-Bold;-inkscape-font-specification:Belfast-Bold;fill:#333333"
         id="path860" />
      <path
         d="m 61.342948,6.0692396 v 9.6689144 l 2.065863,-1.828797 0.897464,-0.846665 q 0.237067,-0.287866 0.270933,-0.457199 0,-0.253999 -0.440266,-0.253999 H 63.71361 v -0.423333 l 1.59173,0.06773 0.643466,-0.03387 0.897464,-0.03387 v 0.423333 q -0.389465,0 -0.558798,0.0508 -0.1524,0.03387 -0.3048,0.118533 -0.135466,0.06773 -0.304799,0.169333 l -0.575732,0.355599 -0.541866,0.457199 -0.541866,0.457199 -0.643465,0.575733 2.506128,3.28506 0.3556,0.440266 q 0.08467,0.118533 0.169333,0.220132 0.152399,0.186267 0.270932,0.287867 l 0.3556,0.321732 q 0.186266,0.135467 0.406399,0.220133 l 0.558799,0.06773 v 0.372533 l -0.897465,-0.01693 -0.965198,-0.0508 -0.795865,0.03387 -1.100665,0.03387 -0.08467,-0.355599 -0.457199,-0.711199 -1.862663,-2.844794 -0.491066,0.440265 v 1.523997 q 0,0.677332 0.01693,0.880532 0.03387,0.186266 0.169333,0.389466 0.135467,0.186266 0.321733,0.253999 0.186266,0.0508 0.609599,0.0508 v 0.372533 l -2.285996,-0.06773 -2.336795,0.06773 v -0.372533 q 0.440266,0 0.626532,-0.0508 0.186266,-0.0508 0.287866,-0.203199 0.1016,-0.1524 0.186266,-0.474133 0.0508,-0.287866 0.0508,-0.829731 V 8.9817672 q 0,-0.9482648 -0.609599,-0.9482648 l -0.558798,0.0508 -0.03387,-0.338666 1.84573,-0.8297317 z"
         style="font-style:normal;font-variant:normal;font-weight:normal;font-stretch:normal;font-family:Belfast-Bold;-inkscape-font-specification:Belfast-Bold;fill:#333333"
         id="path862" />
      <path
         d="m 69.707966,15.670421 q 0,0.592665 0.0508,0.846665 l 0.237066,0.778931 q 0.1016,0.3048 0.254,0.575733 0.1524,0.253999 0.389466,0.558799 0.406399,0.541865 0.931331,0.846665 0.541866,0.270932 1.168398,0.270932 0.541866,0 1.032931,-0.152399 0.507999,-0.169333 1.286931,-0.643466 l 0.1524,0.287866 q -0.982132,0.575733 -1.625597,0.761999 -0.626532,0.186266 -1.507064,0.186266 -2.116662,0 -3.43746,-1.151464 -1.320797,-1.151465 -1.320797,-3.014128 0,-1.219197 0.575732,-2.184395 0.575732,-0.965198 1.507064,-1.405464 0.931331,-0.457199 2.353729,-0.457199 2.319862,0 2.963327,1.066798 0.592666,1.015998 0.728132,1.49013 0.1016,0.440266 0.1016,1.337731 z m 0.01693,-0.457199 h 3.403593 v -0.4064 q 0,-0.135466 0,-0.287866 -0.03387,-0.152399 -0.03387,-0.220133 l -0.118533,-0.761998 q -0.0508,-0.457199 -0.474132,-0.948265 -0.406399,-0.491066 -0.914398,-0.491066 -0.761999,0 -1.320798,0.931332 -0.541865,0.914398 -0.541865,2.184396 z"
         style="font-style:normal;font-variant:normal;font-weight:normal;font-stretch:normal;font-family:Belfast-Bold;-inkscape-font-specification:Belfast-Bold;fill:#333333"
         id="path864" />
      <path
         d="M 79.766334,6.0692396 V 17.82095 q 0,0.270933 0,0.491065 0,0.220133 0.03387,0.4064 0.03387,0.169333 0.135467,0.338666 0.118533,0.169333 0.338666,0.270932 0.186266,0.0508 0.626532,0.0508 v 0.372533 l -2.302929,-0.06773 -2.319862,0.06773 v -0.372533 q 0.440266,0 0.592665,-0.0508 0.169333,-0.0508 0.372533,-0.270932 0.169333,-0.220133 0.169333,-1.151465 v -0.1016 -8.8222488 q 0,-0.9482648 -0.609599,-0.9482648 l -0.558799,0.0508 -0.03387,-0.338666 1.879596,-0.8297317 z"
         style="font-style:normal;font-variant:normal;font-weight:normal;font-stretch:normal;font-family:Belfast-Bold;-inkscape-font-specification:Belfast-Bold;fill:#333333"
         id="path866" />
      <path
         d="M 84.964847,6.0692396 V 17.82095 q 0,0.270933 0,0.491065 0,0.220133 0.03387,0.4064 0.03387,0.169333 0.135467,0.338666 0.118533,0.169333 0.338666,0.270932 0.186266,0.0508 0.626532,0.0508 v 0.372533 l -2.302929,-0.06773 -2.319862,0.06773 v -0.372533 q 0.440266,0 0.592665,-0.0508 0.169333,-0.0508 0.372533,-0.270932 0.169333,-0.220133 0.169333,-1.151465 v -0.1016 -8.8222488 q 0,-0.9482648 -0.609599,-0.9482648 l -0.558799,0.0508 -0.03387,-0.338666 1.879596,-0.8297317 z"
         style="font-style:normal;font-variant:normal;font-weight:normal;font-stretch:normal;font-family:Belfast-Bold;-inkscape-font-specification:Belfast-Bold;fill:#333333"
         id="path868" />
      <path
         d="m 86.759763,13.164292 1.794929,-0.795865 q 0.1016,-0.0508 0.778932,-0.372532 0.524932,-0.254 0.948265,-0.474133 v 5.33399 0.931331 q 0,0.237066 0,0.457199 0,0.2032 0.03387,0.440266 0.0508,0.220133 0.186266,0.389466 0.135466,0.169333 0.253999,0.220133 l 0.220133,0.06773 0.457199,0.01693 v 0.372533 l -1.100664,-0.01693 -1.202264,-0.0508 -0.948265,0.03387 -1.354664,0.03387 V 19.36188 q 0.457199,0 0.609599,-0.0508 0.152399,-0.0508 0.321732,-0.270933 0.186267,-0.237066 0.186267,-1.253064 v -3.369727 q 0,-0.948264 -0.626533,-0.948264 l -0.558798,0.0508 z m 2.370662,-5.3339892 q 0.558798,0 0.965198,0.4402658 0.423332,0.4402658 0.423332,1.0837312 0,0.5926655 -0.389466,0.9990642 -0.389466,0.4064 -0.982131,0.4064 -0.558799,0 -0.999065,-0.440266 -0.406399,-0.4571992 -0.406399,-1.1006646 0,-0.5418656 0.406399,-0.9651981 0.406399,-0.4233325 0.982132,-0.4233325 z"
         style="font-style:normal;font-variant:normal;font-weight:normal;font-stretch:normal;font-family:Belfast-Bold;-inkscape-font-specification:Belfast-Bold;fill:#333333"
         id="path870" />
      <path
         d="m 98.105049,13.943224 -0.304799,0.01693 q 0,-0.440265 -0.0508,-0.660398 -0.0508,-0.237067 -0.237066,-0.491066 -0.169333,-0.270933 -0.609599,-0.457199 -0.423332,-0.2032 -0.914398,-0.2032 -0.694265,0 -1.151465,0.3556 -0.440265,0.355599 -0.440265,0.914398 0,0.389466 0.203199,0.643465 0.186267,0.186266 0.558799,0.423333 l 0.558799,0.304799 1.168398,0.491066 q 0.931331,0.406399 1.33773,0.880531 0.423333,0.457199 0.423333,1.202265 0,1.253064 -0.965198,1.947329 -0.491066,0.338666 -1.168398,0.507999 -0.677332,0.169333 -1.608663,0.169333 -1.032932,0 -2.743195,-0.253999 v -1.879597 h 0.321733 q 0,0.457199 0.118533,0.795865 0.135466,0.338666 0.372532,0.558799 0.423333,0.372533 1.422398,0.372533 0.880531,0 1.422397,-0.406399 0.541865,-0.406399 0.541865,-1.100665 0,-0.406399 -0.169333,-0.609599 -0.152399,-0.220132 -0.677332,-0.491065 l -1.083731,-0.541866 -1.185331,-0.592665 q -0.609599,-0.3048 -0.880531,-0.694266 -0.237067,-0.423332 -0.237067,-1.049864 0,-0.745065 0.440266,-1.286931 0.440266,-0.558799 1.185331,-0.812798 0.778932,-0.220133 2.031996,-0.220133 0.694266,0 1.100665,0.0508 0.406399,0.0508 1.219197,0.253999 z"
         style="font-style:normal;font-variant:normal;font-weight:normal;font-stretch:normal;font-family:Belfast-Bold;-inkscape-font-specification:Belfast-Bold;fill:#333333"
         id="path872" />
    </g>
    <path
       style="fill:#1a1a1a;stroke-width:0.0542127"
       d="M 17.683818,30.018578 C 11.626921,29.556933 6.5107849,25.486719 5.0134578,19.93848 3.7850323,15.386662 5.1195448,10.613261 8.5625156,7.2438853 13.314416,2.5935587 20.889958,1.7779097 26.609717,5.3007664 c 2.881204,1.7745604 4.98213,4.4666209 5.936803,7.6072226 1.12989,3.717012 0.479623,7.778989 -1.765791,11.030282 -1.499497,2.171229 -3.6846,3.932014 -6.152372,4.957647 -2.201647,0.915033 -4.594134,1.301806 -6.944539,1.12266 z m 0.139466,-3.369801 c 1.431495,-0.09611 2.47521,-0.353096 3.711685,-0.913888 1.059252,-0.480417 1.664898,-0.885111 2.484657,-1.660272 1.193349,-1.128417 1.815294,-2.223552 2.091762,-3.683203 0.129084,-0.681486 0.08809,-1.966511 -0.0818,-2.564372 -0.450259,-1.584533 -1.673293,-2.590711 -3.55819,-2.927292 l -0.344808,-0.06157 0.379835,-0.353753 c 1.711565,-1.594044 2.213941,-3.898191 1.251781,-5.7412615 -0.448011,-0.85819 -1.325152,-1.5775287 -2.344968,-1.923095 -2.045822,-0.6932329 -5.087897,-0.4672866 -7.422506,0.5512963 -1.517465,0.6620635 -2.307342,1.3872279 -2.527124,2.3200855 -0.105352,0.4471607 -0.05562,1.3450817 0.08734,1.5769457 0.09939,0.161192 0.144333,0.185928 0.362598,0.199553 0.183534,0.01146 0.320577,-0.02031 0.520342,-0.120616 0.149156,-0.07489 0.286828,-0.121411 0.305935,-0.10337 0.01911,0.01804 0.03476,1.04432 0.03476,2.28062 0,2.438126 -0.01788,2.687032 -0.341201,4.750263 -0.436156,2.783263 -0.478086,3.169721 -0.448697,4.135617 0.03518,1.156798 0.205223,1.773076 0.685183,2.483474 0.79951,1.183383 2.001496,1.704954 4.149263,1.800468 0.107391,0.0048 0.559264,-0.01578 1.004165,-0.04563 z M 17.268389,23.1503 c -1.578871,-0.284072 -2.241174,-0.947196 -2.410737,-2.413715 -0.09406,-0.813501 0.03846,-2.051869 0.536952,-5.016864 0.253871,-1.510081 0.47454,-3.822668 0.475587,-4.984095 l 8.34e-4,-0.611404 0.432346,-0.08549 c 0.950667,-0.1879837 1.250883,-0.2183887 2.161743,-0.2189357 0.834257,-5.31e-4 0.997355,0.01397 1.355412,0.120223 1.074757,0.3189487 1.498696,0.8834197 1.449414,1.9298707 -0.03735,0.793235 -0.408867,1.475366 -1.09783,2.015743 -0.431948,0.338788 -1.488801,0.844389 -2.181183,1.043487 -1.122226,0.322701 -1.199418,0.389939 -1.199418,1.044712 0,0.801923 0.332859,1.39807 0.945974,1.694229 0.285804,0.138052 0.388415,0.158983 0.779424,0.158983 0.247658,0 0.74885,-0.03269 1.113761,-0.07264 1.143397,-0.125181 1.942208,-0.02859 2.739526,0.331226 0.76738,0.346313 1.088856,0.755418 1.209901,1.539688 0.230958,1.49644 -0.906489,2.78038 -2.934472,3.312407 -0.963031,0.25265 -2.586314,0.35483 -3.376952,0.212576 z"
       id="path846" />
  </g>
</svg>
