<?xml version="1.0" encoding="UTF-8"?>
<svg width="400" height="120" version="1.1" viewBox="0 0 105.83 31.75" xmlns="http://www.w3.org/2000/svg">
 <defs>
  <rect x="35.012" y="4.2763" width="184.15" height="78.043"/>
  <pattern id="EMFhbasepattern" width="6" height="6" patternUnits="userSpaceOnUse"/>
 </defs>
 <g transform="translate(-1.1121 7.724)" fill="#f2f2f2" style="shape-inside:url(#rect850);white-space:pre" aria-label="lackellis">
  <path d="m38.788 6.0692v11.752q0 0.27093 0 0.49106 0 0.22013 0.03387 0.4064 0.03387 0.16933 0.13547 0.33867 0.11853 0.16933 0.33867 0.27093 0.18627 0.0508 0.62653 0.0508v0.37253l-2.3029-0.06773-2.3199 0.06773v-0.37253q0.44027 0 0.59266-0.0508 0.16933-0.0508 0.37253-0.27093 0.16933-0.22013 0.16933-1.1515v-8.9238q0-0.94826-0.6096-0.94826l-0.5588 0.0508-0.03387-0.33867 1.8796-0.82973z"/>
  <path d="m45.443 13.909q0-0.94826-0.254-1.3377-0.23707-0.4064-0.84666-0.4064-0.38947 0-0.69427 0.254-0.28787 0.254-0.28787 0.6096 0 0.27093 0.01693 0.33867 0.01693 0.06773 0.08467 0.27093 0.08467 0.2032 0.16933 0.38947l-2.2521 0.72813-0.08467-0.52493q0-0.57573 0.49106-1.1345 0.508-0.5588 1.5579-0.98213 1.0499-0.42333 2.0997-0.42333 1.0668 0 1.6595 0.54187 0.59266 0.508 0.59266 1.524v3.9116q0 0.9144 0.62653 0.9144 0.22013 0 0.6096-0.22013l0.11853 0.3048-3.1496 1.524-0.38947-0.52493q-0.08467-0.18627-0.16933-0.6604l-0.38947 0.32173q-0.98213 0.69427-1.9812 0.69427-1.016 0-1.6595-0.54187-0.64346-0.54186-0.64346-1.4055 0-0.64346 0.37253-1.0329 0.37253-0.4064 0.89746-0.64346 0.52493-0.254 1.6595-0.62653l1.5071-0.4572 0.33867-0.08467zm0 1.6764q-1.2869 0.3556-1.8627 0.89746-0.57573 0.52493-0.57573 1.4055 0 0.62653 0.28787 1.016 0.1524 0.16933 0.33867 0.27093 0.2032 0.1016 0.44027 0.1016 0.67733 0 1.3716-0.79587z"/>
  <path d="m56.974 14.096h-0.37253q-0.1524-1.0329-0.67733-1.5071t-1.5579-0.47413q-1.1007 0-1.778 0.9144-0.67733 0.89746-0.67733 2.3707 0 1.7949 0.84666 2.9633 0.84666 1.1515 2.1675 1.1515 0.59267 0 1.0837-0.1524 0.508-0.16933 1.27-0.64346l0.13547 0.3556q-1.016 0.52493-1.7103 0.74506-0.28787 0.08467-0.67733 0.13547-0.38947 0.0508-0.8636 0.0508-2.0659 0-3.3697-1.1684-1.2869-1.1684-1.2869-2.9803 0-1.8796 1.27-3.0141 1.27-1.1515 3.3189-1.1515 0.2032 0 0.44027 0.01693 0.23707 0 0.8128 0.1016 0.59266 0.1016 1.6256 0.508z"/>
  <path d="m61.343 6.0692v9.6689l2.0659-1.8288 0.89746-0.84666q0.23707-0.28787 0.27093-0.4572 0-0.254-0.44027-0.254h-0.42333v-0.42333l1.5917 0.06773 0.64347-0.03387 0.89746-0.03387v0.42333q-0.38946 0-0.5588 0.0508-0.1524 0.03387-0.3048 0.11853-0.13547 0.06773-0.3048 0.16933l-0.57573 0.3556-1.0837 0.9144-0.64346 0.57573 2.5061 3.2851 0.3556 0.44027q0.08467 0.11853 0.16933 0.22013 0.1524 0.18627 0.27093 0.28787l0.3556 0.32173q0.18627 0.13547 0.4064 0.22013l0.5588 0.06773v0.37253l-0.89746-0.01693-0.9652-0.0508-0.79586 0.03387-1.1007 0.03387-0.08467-0.3556-0.4572-0.7112-1.8627-2.8448-0.49107 0.44026v1.524q0 0.67733 0.01693 0.88053 0.03387 0.18627 0.16933 0.38947 0.13547 0.18627 0.32173 0.254 0.18627 0.0508 0.6096 0.0508v0.37253l-2.286-0.06773-2.3368 0.06773v-0.37253q0.44027 0 0.62653-0.0508t0.28787-0.2032q0.1016-0.1524 0.18627-0.47413 0.0508-0.28787 0.0508-0.82973v-8.8392q0-0.94826-0.6096-0.94826l-0.5588 0.0508-0.03387-0.33867 1.8457-0.82973z"/>
  <path d="m69.708 15.67q0 0.59266 0.0508 0.84666l0.23707 0.77893q0.1016 0.3048 0.254 0.57573 0.1524 0.254 0.38947 0.5588 0.4064 0.54186 0.93133 0.84666 0.54187 0.27093 1.1684 0.27093 0.54187 0 1.0329-0.1524 0.508-0.16933 1.2869-0.64347l0.1524 0.28787q-0.98213 0.57573-1.6256 0.762-0.62653 0.18627-1.5071 0.18627-2.1167 0-3.4375-1.1515-1.3208-1.1515-1.3208-3.0141 0-1.2192 0.57573-2.1844t1.5071-1.4055q0.93133-0.4572 2.3537-0.4572 2.3199 0 2.9633 1.0668 0.59267 1.016 0.72813 1.4901 0.1016 0.44027 0.1016 1.3377zm0.01693-0.4572h3.4036v-0.4064q0-0.13547 0-0.28787-0.03387-0.1524-0.03387-0.22013l-0.11853-0.762q-0.0508-0.4572-0.47413-0.94826-0.4064-0.49107-0.9144-0.49107-0.762 0-1.3208 0.93133-0.54186 0.9144-0.54186 2.1844z"/>
  <path d="m79.766 6.0692v11.752q0 0.27093 0 0.49106 0 0.22013 0.03387 0.4064 0.03387 0.16933 0.13547 0.33867 0.11853 0.16933 0.33867 0.27093 0.18627 0.0508 0.62653 0.0508v0.37253l-2.3029-0.06773-2.3199 0.06773v-0.37253q0.44027 0 0.59266-0.0508 0.16933-0.0508 0.37253-0.27093 0.16933-0.22013 0.16933-1.1515v-8.9238q0-0.94826-0.6096-0.94826l-0.5588 0.0508-0.03387-0.33867 1.8796-0.82973z"/>
  <path d="m84.965 6.0692v11.752q0 0.27093 0 0.49106 0 0.22013 0.03387 0.4064 0.03387 0.16933 0.13547 0.33867 0.11853 0.16933 0.33867 0.27093 0.18627 0.0508 0.62653 0.0508v0.37253l-2.3029-0.06773-2.3199 0.06773v-0.37253q0.44027 0 0.59266-0.0508 0.16933-0.0508 0.37253-0.27093 0.16933-0.22013 0.16933-1.1515v-8.9238q0-0.94826-0.6096-0.94826l-0.5588 0.0508-0.03387-0.33867 1.8796-0.82973z"/>
  <path d="m86.76 13.164 1.7949-0.79586q0.1016-0.0508 0.77893-0.37253 0.52493-0.254 0.94826-0.47413v6.2653q0 0.23707 0 0.4572 0 0.2032 0.03387 0.44027 0.0508 0.22013 0.18627 0.38947t0.254 0.22013l0.22013 0.06773 0.4572 0.01693v0.37253l-1.1007-0.01693-1.2023-0.0508-0.94826 0.03387-1.3547 0.03387v-0.38947q0.4572 0 0.6096-0.0508 0.1524-0.0508 0.32173-0.27093 0.18627-0.23707 0.18627-1.2531v-3.3697q0-0.94826-0.62653-0.94826l-0.5588 0.0508zm2.3707-5.334q0.5588 0 0.9652 0.44027 0.42333 0.44027 0.42333 1.0837 0 0.59267-0.38947 0.99906-0.38947 0.4064-0.98213 0.4064-0.5588 0-0.99906-0.44027-0.4064-0.4572-0.4064-1.1007 0-0.54187 0.4064-0.9652t0.98213-0.42333z"/>
  <path d="m98.105 13.943-0.3048 0.01693q0-0.44026-0.0508-0.6604-0.0508-0.23707-0.23707-0.49107-0.16933-0.27093-0.6096-0.4572-0.42333-0.2032-0.9144-0.2032-0.69426 0-1.1515 0.3556-0.44026 0.3556-0.44026 0.9144 0 0.38947 0.2032 0.64346 0.18627 0.18627 0.5588 0.42333l0.5588 0.3048 1.1684 0.49107q0.93133 0.4064 1.3377 0.88053 0.42333 0.4572 0.42333 1.2023 0 1.2531-0.9652 1.9473-0.49107 0.33867-1.1684 0.508t-1.6087 0.16933q-1.0329 0-2.7432-0.254v-1.8796h0.32173q0 0.4572 0.11853 0.79586 0.13547 0.33867 0.37253 0.5588 0.42333 0.37253 1.4224 0.37253 0.88053 0 1.4224-0.4064 0.54186-0.4064 0.54186-1.1007 0-0.4064-0.16933-0.6096-0.1524-0.22013-0.67733-0.49106l-2.2691-1.1345q-0.6096-0.3048-0.88053-0.69427-0.23707-0.42333-0.23707-1.0499 0-0.74506 0.44027-1.2869 0.44027-0.5588 1.1853-0.8128 0.77893-0.22013 2.032-0.22013 0.69427 0 1.1007 0.0508t1.2192 0.254z"/>
 </g>
 <path d="m17.684 30.019c-6.0569-0.46164-11.173-4.5319-12.67-10.08-1.2284-4.5518 0.10609-9.3252 3.5491-12.695 4.7519-4.6503 12.327-5.466 18.047-1.9431 2.8812 1.7746 4.9821 4.4666 5.9368 7.6072 1.1299 3.717 0.47962 7.779-1.7658 11.03-1.4995 2.1712-3.6846 3.932-6.1524 4.9576-2.2016 0.91503-4.5941 1.3018-6.9445 1.1227zm0.13947-3.3698c1.4315-0.09611 2.4752-0.3531 3.7117-0.91389 1.0593-0.48042 1.6649-0.88511 2.4847-1.6603 1.1933-1.1284 1.8153-2.2236 2.0918-3.6832 0.12908-0.68149 0.08809-1.9665-0.0818-2.5644-0.45026-1.5845-1.6733-2.5907-3.5582-2.9273l-0.34481-0.06157 0.37984-0.35375c1.7116-1.594 2.2139-3.8982 1.2518-5.7413-0.44801-0.85819-1.3252-1.5775-2.345-1.9231-2.0458-0.69323-5.0879-0.46729-7.4225 0.5513-1.5175 0.66206-2.3073 1.3872-2.5271 2.3201-0.10535 0.44716-0.05562 1.3451 0.08734 1.5769 0.09939 0.16119 0.14433 0.18593 0.3626 0.19955 0.18353 0.01146 0.32058-0.02031 0.52034-0.12062 0.14916-0.07489 0.28683-0.12141 0.30594-0.10337 0.01911 0.01804 0.03476 1.0443 0.03476 2.2806 0 2.4381-0.01788 2.687-0.3412 4.7503-0.43616 2.7833-0.47809 3.1697-0.4487 4.1356 0.03518 1.1568 0.20522 1.7731 0.68518 2.4835 0.79951 1.1834 2.0015 1.705 4.1493 1.8005 0.10739 0.0048 0.55926-0.01578 1.0042-0.04563zm-0.5549-3.4985c-1.5789-0.28407-2.2412-0.9472-2.4107-2.4137-0.09406-0.8135 0.03846-2.0519 0.53695-5.0169 0.25387-1.5101 0.47454-3.8227 0.47559-4.9841l8.34e-4 -0.6114 0.43235-0.08549c0.95067-0.18798 1.2509-0.21839 2.1617-0.21894 0.83426-5.31e-4 0.99736 0.01397 1.3554 0.12022 1.0748 0.31895 1.4987 0.88342 1.4494 1.9299-0.03735 0.79324-0.40887 1.4754-1.0978 2.0157-0.43195 0.33879-1.4888 0.84439-2.1812 1.0435-1.1222 0.3227-1.1994 0.38994-1.1994 1.0447 0 0.80192 0.33286 1.3981 0.94597 1.6942 0.2858 0.13805 0.38842 0.15898 0.77942 0.15898 0.24766 0 0.74885-0.03269 1.1138-0.07264 1.1434-0.12518 1.9422-0.02859 2.7395 0.33123 0.76738 0.34631 1.0889 0.75542 1.2099 1.5397 0.23096 1.4964-0.90649 2.7804-2.9345 3.3124-0.96303 0.25265-2.5863 0.35483-3.377 0.21258z" fill="#ececec" stroke-width=".054213"/>
</svg>
