<?xml version="1.0" encoding="UTF-8" standalone="no"?><!DOCTYPE svg PUBLIC "-//W3C//DTD SVG 1.1//EN" "http://www.w3.org/Graphics/SVG/1.1/DTD/svg11.dtd"><svg width="100%" height="100%" viewBox="0 0 300 150" version="1.1" xmlns="http://www.w3.org/2000/svg" xmlns:xlink="http://www.w3.org/1999/xlink" xml:space="preserve" xmlns:serif="http://www.serif.com/" style="fill-rule:evenodd;clip-rule:evenodd;stroke-linejoin:round;stroke-miterlimit:2;"><text x="143.824px" y="60.445px" style="font-family:'Ragtime-Medium';font-size:64px;fill:#ffaf00;stroke:#8a8484;stroke-width:1px;">hsoft</text><text x="32.464px" y="60.445px" style="font-family:'Ragtime-Medium';font-size:64px;fill:#ffbf00;stroke:#8a8484;stroke-width:1px;">Fla</text><path id="path826" d="M109.06,99.229c-0.447,-0.725 4.906,-16.488 8.934,-26.305c0.64,-1.56 0.089,-1.664 -5.866,-1.108c-5.731,0.535 -6.661,0.384 -7.26,-1.176c-0.378,-0.984 -0.212,-3.048 0.368,-4.585c1.862,-4.933 26.68,-44.941 27.672,-44.61c3.212,1.071 3.005,3.815 -1.264,16.749c-2.377,7.203 -4.147,13.273 -3.933,13.487c0.215,0.215 3.432,-0.114 7.151,-0.73c5.88,-0.975 6.972,-0.909 8.381,0.5c1.268,1.268 1.391,2.118 0.566,3.907c-1.034,2.243 -23.193,35.149 -27.971,41.537c-2.339,3.126 -5.595,4.248 -6.778,2.334l0,0Z" style="fill:#ff6000;fill-rule:nonzero;stroke:#a35c5c;stroke-width:1px;"/><text x="133.596px" y="131.065px" style="font-family:'Limerick-DemiBoldCondIta';font-size:81.613px;fill:#ffc748;stroke:#8a8484;stroke-width:1px;">Blog</text></svg>